HIERARCHY
ROOT reference
{
  OFFSET 0 0 0
  CHANNELS 6 Xposition Yposition Zposition Zrotation Xrotation Yrotation
  JOINT Hips
  {
    OFFSET 339.145 90.8604 236.464
    CHANNELS 3 Zrotation Xrotation Yrotation
    JOINT RightUpLeg
    {
      OFFSET -9.24113 -1.522 -0.0337757
      CHANNELS 3 Zrotation Xrotation Yrotation
      JOINT RightLeg
      {
        OFFSET 0.0344394 -41.8985 0.100154
        CHANNELS 3 Zrotation Xrotation Yrotation
        JOINT RightFoot
        {
          OFFSET -0.415571 -42.0751 0.023027
          CHANNELS 3 Zrotation Xrotation Yrotation
          End Site
          {
            OFFSET 0 -7.69 17.5
          }
        }
      }
    }
    JOINT LeftUpLeg
    {
      OFFSET 9.30897 -1.67379 -0.0291548
      CHANNELS 3 Zrotation Xrotation Yrotation
      JOINT LeftLeg
      {
        OFFSET 0.0832755 -41.864 -0.14338
        CHANNELS 3 Zrotation Xrotation Yrotation
        JOINT LeftFoot
        {
          OFFSET 0.17151 -41.5225 0.735469
          CHANNELS 3 Zrotation Xrotation Yrotation
          End Site
          {
            OFFSET 0 -7.69 17.5
          }
        }
      }
    }
    JOINT Spine
    {
      OFFSET 0.00853273 14.2903 0.0777264
      CHANNELS 3 Zrotation Xrotation Yrotation
      JOINT Spine1
      {
        OFFSET 0.0173944 9.71323 0.029081
        CHANNELS 3 Zrotation Xrotation Yrotation
        JOINT Spine2
        {
          OFFSET 0.0412483 10.1247 -0.0145163
          CHANNELS 3 Zrotation Xrotation Yrotation
          JOINT Spine3
          {
            OFFSET 0.0279063 9.71793 0.00755232
            CHANNELS 3 Zrotation Xrotation Yrotation
            JOINT Neck
            {
              OFFSET 0.0852486 10.3712 0.0268485
              CHANNELS 3 Zrotation Xrotation Yrotation
              JOINT Head
              {
                OFFSET 0.0739267 9.48251 0.0332551
                CHANNELS 3 Zrotation Xrotation Yrotation
                End Site
                {
                  OFFSET 0 15.95 0
                }
              }
            }
            JOINT RightShoulder
            {
              OFFSET -3.14957 6.95772 0.0300988
              CHANNELS 3 Zrotation Xrotation Yrotation
              JOINT RightArm
              {
                OFFSET -12.7513 0.0411148 0.0791701
                CHANNELS 3 Zrotation Xrotation Yrotation
                JOINT RightForeArm
                {
                  OFFSET -26.4959 0.0361336 0.259434
                  CHANNELS 3 Zrotation Xrotation Yrotation
                  JOINT RightHand
                  {
                    OFFSET -25.9829 -0.0837334 0.191464
                    CHANNELS 3 Zrotation Xrotation Yrotation
                    JOINT RightHandThumb1
                    {
                      OFFSET -2.48905 0.190105 3.12053
                      CHANNELS 3 Zrotation Xrotation Yrotation
                      JOINT RightHandThumb2
                      {
                        OFFSET -3.68274 0 0
                        CHANNELS 3 Zrotation Xrotation Yrotation
                        JOINT RightHandThumb3
                        {
                          OFFSET -2.55832 0 0
                          CHANNELS 3 Zrotation Xrotation Yrotation
                          End Site
                          {
                            OFFSET -2.194 0 0
                          }
                        }
                      }
                    }
                    JOINT RightInHandIndex
                    {
                      OFFSET -3.22368 0.508421 1.97842
                      CHANNELS 3 Zrotation Xrotation Yrotation
                      JOINT RightHandIndex1
                      {
                        OFFSET -5.21684 -0.091368 0.999158
                        CHANNELS 3 Zrotation Xrotation Yrotation
                        JOINT RightHandIndex2
                        {
                          OFFSET -3.61937 0 0
                          CHANNELS 3 Zrotation Xrotation Yrotation
                          JOINT RightHandIndex3
                          {
                            OFFSET -2.0521 0 0
                            CHANNELS 3 Zrotation Xrotation Yrotation
                            End Site
                            {
                              OFFSET -1.805 0 0
                            }
                          }
                        }
                      }
                    }
                    JOINT RightInHandMiddle
                    {
                      OFFSET -3.38211 0.517263 0.756737
                      CHANNELS 3 Zrotation Xrotation Yrotation
                      JOINT RightHandMiddle1
                      {
                        OFFSET -5.17411 -0.084 0.313895
                        CHANNELS 3 Zrotation Xrotation Yrotation
                        JOINT RightHandMiddle2
                        {
                          OFFSET -3.94947 0 0
                          CHANNELS 3 Zrotation Xrotation Yrotation
                          JOINT RightHandMiddle3
                          {
                            OFFSET -2.47579 0 0
                            CHANNELS 3 Zrotation Xrotation Yrotation
                            End Site
                            {
                              OFFSET -1.975 0 0
                            }
                          }
                        }
                      }
                    }
                    JOINT RightInHandRing
                    {
                      OFFSET -3.36516 0.537895 -0.128947
                      CHANNELS 3 Zrotation Xrotation Yrotation
                      JOINT RightHandRing1
                      {
                        OFFSET -4.63474 -0.022105 -0.478947
                        CHANNELS 3 Zrotation Xrotation Yrotation
                        JOINT RightHandRing2
                        {
                          OFFSET -3.44238 0 0
                          CHANNELS 3 Zrotation Xrotation Yrotation
                          JOINT RightHandRing3
                          {
                            OFFSET -2.3881 0 0
                            CHANNELS 3 Zrotation Xrotation Yrotation
                            End Site
                            {
                              OFFSET -1.857 0 0
                            }
                          }
                        }
                      }
                    }
                    JOINT RightInHandPinky
                    {
                      OFFSET -3.16105 0.469368 -1.20179
                      CHANNELS 3 Zrotation Xrotation Yrotation
                      JOINT RightHandPinky1
                      {
                        OFFSET -4.14105 -0.022105 -1.09053
                        CHANNELS 3 Zrotation Xrotation Yrotation
                        JOINT RightHandPinky2
                        {
                          OFFSET -2.75653 0 0
                          CHANNELS 3 Zrotation Xrotation Yrotation
                          JOINT RightHandPinky3
                          {
                            OFFSET -1.74189 0 0
                            CHANNELS 3 Zrotation Xrotation Yrotation
                            End Site
                            {
                              OFFSET -1.645 0 0
                            }
                          }
                        }
                      }
                    }
                  }
                }
              }
            }
            JOINT LeftShoulder
            {
              OFFSET 3.25273 6.91522 -0.0295735
              CHANNELS 3 Zrotation Xrotation Yrotation
              JOINT LeftArm
              {
                OFFSET 12.7785 0.0134102 -0.0213482
                CHANNELS 3 Zrotation Xrotation Yrotation
                JOINT LeftForeArm
                {
                  OFFSET 26.5044 -0.0446277 0.0404034
                  CHANNELS 3 Zrotation Xrotation Yrotation
                  JOINT LeftHand
                  {
                    OFFSET 25.9955 -0.0467726 -0.0166804
                    CHANNELS 3 Zrotation Xrotation Yrotation
                    JOINT LeftHandThumb1
                    {
                      OFFSET 2.48905 0.190105 3.12053
                      CHANNELS 3 Zrotation Xrotation Yrotation
                      JOINT LeftHandThumb2
                      {
                        OFFSET 3.68274 0 0
                        CHANNELS 3 Zrotation Xrotation Yrotation
                        JOINT LeftHandThumb3
                        {
                          OFFSET 2.55832 0 0
                          CHANNELS 3 Zrotation Xrotation Yrotation
                          End Site
                          {
                            OFFSET 2.194 0 0
                          }
                        }
                      }
                    }
                    JOINT LeftInHandIndex
                    {
                      OFFSET 3.22368 0.508421 1.97842
                      CHANNELS 3 Zrotation Xrotation Yrotation
                      JOINT LeftHandIndex1
                      {
                        OFFSET 5.21684 -0.091368 0.999158
                        CHANNELS 3 Zrotation Xrotation Yrotation
                        JOINT LeftHandIndex2
                        {
                          OFFSET 3.61937 0 0
                          CHANNELS 3 Zrotation Xrotation Yrotation
                          JOINT LeftHandIndex3
                          {
                            OFFSET 2.0521 0 0
                            CHANNELS 3 Zrotation Xrotation Yrotation
                            End Site
                            {
                              OFFSET 1.805 0 0
                            }
                          }
                        }
                      }
                    }
                    JOINT LeftInHandMiddle
                    {
                      OFFSET 3.38211 0.517263 0.756737
                      CHANNELS 3 Zrotation Xrotation Yrotation
                      JOINT LeftHandMiddle1
                      {
                        OFFSET 5.17411 -0.084 0.313895
                        CHANNELS 3 Zrotation Xrotation Yrotation
                        JOINT LeftHandMiddle2
                        {
                          OFFSET 3.94947 0 0
                          CHANNELS 3 Zrotation Xrotation Yrotation
                          JOINT LeftHandMiddle3
                          {
                            OFFSET 2.47579 0 0
                            CHANNELS 3 Zrotation Xrotation Yrotation
                            End Site
                            {
                              OFFSET 1.975 0 0
                            }
                          }
                        }
                      }
                    }
                    JOINT LeftInHandRing
                    {
                      OFFSET 3.36516 0.537895 -0.128947
                      CHANNELS 3 Zrotation Xrotation Yrotation
                      JOINT LeftHandRing1
                      {
                        OFFSET 4.63474 -0.022105 -0.478947
                        CHANNELS 3 Zrotation Xrotation Yrotation
                        JOINT LeftHandRing2
                        {
                          OFFSET 3.44238 0 0
                          CHANNELS 3 Zrotation Xrotation Yrotation
                          JOINT LeftHandRing3
                          {
                            OFFSET 2.3881 0 0
                            CHANNELS 3 Zrotation Xrotation Yrotation
                            End Site
                            {
                              OFFSET 1.857 0 0
                            }
                          }
                        }
                      }
                    }
                    JOINT LeftInHandPinky
                    {
                      OFFSET 3.16105 0.469368 -1.20179
                      CHANNELS 3 Zrotation Xrotation Yrotation
                      JOINT LeftHandPinky1
                      {
                        OFFSET 4.14105 -0.022105 -1.09053
                        CHANNELS 3 Zrotation Xrotation Yrotation
                        JOINT LeftHandPinky2
                        {
                          OFFSET 2.75653 0 0
                          CHANNELS 3 Zrotation Xrotation Yrotation
                          JOINT LeftHandPinky3
                          {
                            OFFSET 1.74189 0 0
                            CHANNELS 3 Zrotation Xrotation Yrotation
                            End Site
                            {
                              OFFSET 1.645 0 0
                            }
                          }
                        }
                      }
                    }
                  }
                }
              }
            }
          }
        }
      }
    }
  }
}
MOTION
Frames: 2
Frame Time: 0.00833333
1.500000000000000000e+02 0.000000000000000000e+00 0.000000000000000000e+00 0.000000000000000000e+00 0.000000000000000000e+00 -0.000000000000000000e+00 -1.172534236286600952e-02 2.246923439997535951e-02 3.902968780370438123e-02 1.852917243754287693e-02 3.108310568831235132e-03 1.289276531333485298e-01 4.101987094261065614e-02 2.259668122706372240e-02 -1.812192463676968179e-01 4.645863904207150202e-03 -1.773487717164539193e-02 1.480986228144290026e-02 -2.229447191751511223e-02 -2.730796163437557069e-03 -9.695828518446617320e-03 4.231725408072453676e-02 -3.558427596388114705e-02 -7.756069037143046435e-03 -1.700466975045211021e-02 3.399163586749696236e-02 -4.288685811355721911e-02 -9.261279194392241969e-04 6.254625442925478181e-03 1.082518123589960510e-02 -7.665296042859353698e-04 1.691829658451626719e-03 2.843500577796929767e-03 -1.219223543924427599e-03 2.635642749084122962e-03 4.716012738833167718e-03 1.466295728350848655e-03 2.211573760226267019e-04 -9.482780771174430636e-04 4.531359343426101353e-04 -1.190084587129456271e-03 3.738897987553880826e-03 2.589990144680447831e-02 1.575907088692852197e-03 -2.327065517657191107e-02 -6.632320313456283034e-02 -8.723082819252786502e-02 1.526500832579413824e-01 1.305258708178672900e-01 -2.004768084602231715e-01 -1.265343485483436392e-01 -1.803164255792778781e-01 1.876392531086555626e-01 -1.658518099269969126e-01 3.103306227570632250e-02 -1.059274208250886654e-02 -1.152236406242799216e-01 0.000000000000000000e+00 0.000000000000000000e+00 0.000000000000000000e+00 1.318217128699680096e-14 -2.231606593329825476e-15 0.000000000000000000e+00 1.539446661594772731e-14 -4.041985337820497013e-16 0.000000000000000000e+00 -1.642174395570769872e-15 -3.278215170706358608e-15 -1.977248735771872947e-15 0.000000000000000000e+00 0.000000000000000000e+00 0.000000000000000000e+00 0.000000000000000000e+00 4.175325892145052328e-15 9.622612480224947563e-15 0.000000000000000000e+00 2.069149943637984431e-15 1.625978223090345528e-14 -1.642174395570769872e-15 -3.278215170706358608e-15 -1.977248735771872947e-15 0.000000000000000000e+00 5.885894616953857628e-15 1.155884447233663270e-14 0.000000000000000000e+00 1.162055560984036536e-15 1.376400118869425396e-14 0.000000000000000000e+00 -6.865120692096347458e-16 4.532624744856117898e-15 -1.642174395570769872e-15 -3.278215170706358608e-15 -1.977248735771872947e-15 0.000000000000000000e+00 0.000000000000000000e+00 0.000000000000000000e+00 0.000000000000000000e+00 -3.898574590358585129e-15 1.019705009050744374e-14 0.000000000000000000e+00 3.663104382036945259e-15 2.001327529311499727e-14 -1.642174395570769872e-15 -3.278215170706358608e-15 -1.977248735771872947e-15 0.000000000000000000e+00 0.000000000000000000e+00 0.000000000000000000e+00 0.000000000000000000e+00 9.443148481776383708e-15 4.481033141055030060e-15 0.000000000000000000e+00 -3.959350879216099230e-15 1.793383913735974142e-14 -1.186254513568289065e-02 -8.461482295625184259e-04 8.545960644147748697e-02 -2.346963810298952902e-01 -6.833348325992837091e-02 1.267327049343862921e-01 -6.818050681131491986e-02 -1.669363556219023992e-01 -3.064824676396250835e-02 -9.798730816184356499e-03 2.035605363038626159e-01 5.098999832150001577e-02 0.000000000000000000e+00 0.000000000000000000e+00 0.000000000000000000e+00 -5.805068810033104840e-16 -2.914884561238072732e-15 0.000000000000000000e+00 -5.990327610801257945e-15 -1.131260130044530549e-15 0.000000000000000000e+00 2.984962330120748047e-15 -3.491162072673717166e-15 -1.783373246650735456e-15 0.000000000000000000e+00 0.000000000000000000e+00 0.000000000000000000e+00 0.000000000000000000e+00 5.646670473574227612e-15 -9.223270538715501326e-15 0.000000000000000000e+00 5.378124429209199191e-15 -7.925189652104269669e-16 2.984962330120748047e-15 -3.491162072673717166e-15 -1.783373246650735456e-15 0.000000000000000000e+00 -5.219560400564278401e-15 -1.197303515737449764e-15 0.000000000000000000e+00 2.547065803700608193e-15 -8.552992257097158867e-15 0.000000000000000000e+00 2.557365427650044515e-15 -2.789281723702579718e-15 2.984962330120748047e-15 -3.491162072673717166e-15 -1.783373246650735456e-15 0.000000000000000000e+00 0.000000000000000000e+00 0.000000000000000000e+00 0.000000000000000000e+00 2.059003845096611231e-15 -5.801590887700836795e-15 0.000000000000000000e+00 6.540009518470028367e-15 -7.436419272548182031e-15 2.984962330120748047e-15 -3.491162072673717166e-15 -1.783373246650735456e-15 0.000000000000000000e+00 0.000000000000000000e+00 0.000000000000000000e+00 0.000000000000000000e+00 -2.477259656695445110e-15 -8.273772366848132983e-15 0.000000000000000000e+00 -1.037220847695943548e-15 -3.847533026596168408e-15
1.500000000000000000e+02 0.000000000000000000e+00 0.000000000000000000e+00 0.000000000000000000e+00 0.000000000000000000e+00 -0.000000000000000000e+00 -2.177013783515556033e-03 5.133438020006538677e-03 -1.242265962963707247e-03 5.004885146772325780e-03 -2.400570581213576707e-04 2.324003665922632147e-02 1.209236613115639326e-02 1.916425695278346861e-03 -2.562278486536654146e-02 5.331192770827811742e-04 -2.235727109170082983e-03 9.879973357291606251e-04 6.427925496578902262e-03 -6.809530165744095802e-04 1.004663453134149557e-02 6.011918727136641473e-03 2.367659395732843019e-04 -4.250497845923575761e-03 -6.492007908695941569e-04 7.092992011266155113e-04 -4.788868116854944935e-03 -1.545190492649910555e-03 -1.941688736441952567e-03 5.294831256876419284e-03 -1.506859440723237731e-04 -3.142609579529022953e-04 1.399610325097340891e-03 -6.612992610261524736e-04 -4.643574894251637397e-04 2.238880086967577187e-03 3.995090019242668843e-04 2.732954663900977234e-05 -2.096052320787344884e-05 2.741972470991844882e-04 -1.179016097969931689e-04 5.597385567656114249e-04 7.428296108959472552e-03 1.982754780688847536e-03 -1.231597215472901531e-03 -1.462264452455037597e-02 -1.157393219766680859e-02 5.763717758261599489e-02 2.754001212017889375e-02 -6.453002183634586053e-02 -2.405669444341162685e-02 -3.304185237485124382e-01 5.911674841213283571e-01 -4.157495987615030808e-01 2.046695579739283288e-01 -5.386921600754356332e-01 3.732868087869970486e-01 0.000000000000000000e+00 0.000000000000000000e+00 0.000000000000000000e+00 1.976301750686289924e-15 1.276736196925982118e-17 0.000000000000000000e+00 -1.593927348296411026e-15 -3.689972348155218654e-15 0.000000000000000000e+00 -7.491691957418602278e-15 -1.814002149480097966e-15 -4.500425223128428011e-16 0.000000000000000000e+00 0.000000000000000000e+00 0.000000000000000000e+00 0.000000000000000000e+00 -2.561194015905568713e-15 -6.783228231382809175e-15 0.000000000000000000e+00 -2.262248975692758928e-15 -1.344288585045001376e-14 -7.491691957418602278e-15 -1.814002149480097966e-15 -4.500425223128428011e-16 0.000000000000000000e+00 8.675803432399775281e-15 2.869639759376220731e-15 0.000000000000000000e+00 -4.345975305290434550e-16 -5.213777696542046079e-15 0.000000000000000000e+00 -7.870114619979770806e-15 -1.272810511823731570e-14 -7.491691957418602278e-15 -1.814002149480097966e-15 -4.500425223128428011e-16 0.000000000000000000e+00 0.000000000000000000e+00 0.000000000000000000e+00 0.000000000000000000e+00 3.539502169657575824e-16 -8.900420453906448959e-15 0.000000000000000000e+00 -4.146204577849305803e-15 -4.556917630047843165e-15 -7.491691957418602278e-15 -1.814002149480097966e-15 -4.500425223128428011e-16 0.000000000000000000e+00 0.000000000000000000e+00 0.000000000000000000e+00 0.000000000000000000e+00 5.867162465119144047e-15 -6.217304477484273916e-15 0.000000000000000000e+00 2.522234649020927688e-15 -6.036591276775146390e-15 -9.783315479134637241e-03 1.715442532154353578e-02 6.231747077647027677e-02 -2.440934259015221097e-01 -1.724370524763583767e-01 2.632649084787531124e-01 -3.499145360579043462e-01 6.729874843345338975e-02 -3.146448821425547049e-01 2.040720443963543046e-02 1.779943174469166001e-01 4.267500529396489606e-02 0.000000000000000000e+00 0.000000000000000000e+00 0.000000000000000000e+00 -5.758278781358191666e-15 1.294862820886850630e-15 0.000000000000000000e+00 -9.530943415077330053e-15 -1.621095228369592462e-15 0.000000000000000000e+00 8.582437262562393360e-16 -1.721783280845430265e-15 -1.164645002458026895e-15 0.000000000000000000e+00 0.000000000000000000e+00 0.000000000000000000e+00 0.000000000000000000e+00 6.052768203014694337e-17 3.616331752187291016e-15 0.000000000000000000e+00 2.096195428601782756e-15 2.465761104909619669e-15 8.582437262562393360e-16 -1.721783280845430265e-15 -1.164645002458026895e-15 0.000000000000000000e+00 -1.747332519846399390e-15 4.284275489445472884e-16 0.000000000000000000e+00 -3.290295284010627516e-15 7.246259499343461070e-16 0.000000000000000000e+00 -6.355538240113285602e-16 -1.005203525018184231e-15 8.582437262562393360e-16 -1.721783280845430265e-15 -1.164645002458026895e-15 0.000000000000000000e+00 0.000000000000000000e+00 0.000000000000000000e+00 0.000000000000000000e+00 6.943968841829354159e-16 1.073778248118362767e-14 0.000000000000000000e+00 1.330854253903888367e-15 2.029147192537434567e-15 8.582437262562393360e-16 -1.721783280845430265e-15 -1.164645002458026895e-15 0.000000000000000000e+00 0.000000000000000000e+00 0.000000000000000000e+00 0.000000000000000000e+00 -5.877786439881025827e-16 -6.130033504264993147e-16 0.000000000000000000e+00 3.062865234600786566e-16 1.628239899256062382e-15
